<svg xmlns="http://www.w3.org/2000/svg" viewBox="0 0 64 64" fill="none">
	<rect x="8" y="8" width="48" height="48" rx="12" fill="#1F7A8C"/>
	<circle cx="32" cy="32" r="18" fill="#E8F7FA"/>
	<path d="M33.2 44.2v-3.1c3.6-.4 5.9-2.6 5.9-5.6 0-3.2-2.1-4.8-5.9-5.8v-5.2c1.5.2 2.5 1 2.8 2.3h2.9c-.3-2.8-2.4-4.8-5.7-5.2v-2.6h-2.3v2.6c-3.5.4-5.7 2.5-5.7 5.5 0 3.2 2.1 4.7 5.7 5.7v5.4c-1.8-.2-3-1.3-3.3-2.9h-2.9c.2 3.1 2.6 5.4 6.2 5.8v3.1h2.3zm0-16.9c2 .5 2.9 1.2 2.9 2.5 0 1.3-1 2.2-2.9 2.5v-5zm-2.3 10.5c-1.9-.5-2.9-1.3-2.9-2.6 0-1.2.9-2.1 2.9-2.4v5z" fill="#1F7A8C"/>
</svg>
